<?xml version="1.0" encoding="UTF-8"?>
<svg version="1.1" xmlns="http://www.w3.org/2000/svg" width="995" height="564">
<path d="M0 0 C328.35 0 656.7 0 995 0 C995 186.12 995 372.24 995 564 C666.65 564 338.3 564 0 564 C0 377.88 0 191.76 0 0 Z " fill="#FEFEFE" transform="translate(0,0)"/>
<path d="M0 0 C0.94746094 -0.020625 1.89492188 -0.04125 2.87109375 -0.0625 C17.40465542 -0.14202701 29.40820182 5.55584764 39.828125 15.51953125 C50.95363045 27.44702866 54.0709855 41.04060502 53.8125 57 C53.81958984 58.24910156 53.82667969 59.49820313 53.83398438 60.78515625 C53.78551968 67.84608917 53.19294947 73.75963133 50.375 80.25 C49.88902344 81.43464844 49.40304687 82.61929688 48.90234375 83.83984375 C41.52474025 99.37450273 30.68854017 107.03752098 14.98046875 113.1875 C12.73244943 113.8259907 10.71090135 114.08365551 8.375 114.25 C7.75431641 114.29624512 7.13363281 114.34249023 6.49414062 114.39013672 C-8.51726233 115.35495928 -21.54325886 112.81676645 -33.625 103.25 C-34.54152344 102.59257812 -34.54152344 102.59257812 -35.4765625 101.921875 C-46.07816224 93.79553863 -51.21788805 80.00582068 -53.625 67.25 C-53.91211848 64.20220517 -53.95949848 61.18498829 -53.9375 58.125 C-53.93186035 57.29605225 -53.9262207 56.46710449 -53.92041016 55.61303711 C-53.6113315 39.75056939 -49.15149704 26.08090746 -38.0390625 14.50390625 C-26.9524224 4.15278758 -14.89873375 0.07914334 0 0 Z " fill="#141515" transform="translate(580.625,252.75)"/>
<path d="M0 0 C9.24 0 18.48 0 28 0 C30.33805155 6.75018109 32.67578612 13.50046209 35.01106262 20.25160217 C36.09960862 23.39828508 37.18874542 26.54476009 38.27880859 29.69091797 C43.96092356 46.09201691 49.5560902 62.51820524 55 79 C59.84526983 64.56552396 64.59827019 50.10478598 69.27154541 35.6138916 C73.10888084 23.71778658 77.02066551 11.84957381 81 0 C89.91 0 98.82 0 108 0 C107.20175952 4.7894429 106.11279381 8.87898965 104.4453125 13.37109375 C104.18802872 14.07748993 103.93074493 14.78388611 103.66566467 15.51168823 C103.11183426 17.03064007 102.55567488 18.5487444 101.99740601 20.06607056 C100.81092452 23.29123994 99.63601018 26.5205836 98.46043396 29.7497406 C97.85713152 31.40665574 97.25325588 33.06336227 96.64881897 34.71986389 C93.78599741 42.56913028 90.97693295 50.43690092 88.1875 58.3125 C87.96057465 58.95230804 87.73364929 59.59211609 87.49984741 60.25131226 C84.93743851 67.47716562 82.40072833 74.71117749 79.90112305 81.95898438 C76.62937693 91.43519456 73.29130164 100.88742498 69.875 110.3125 C69.47917725 111.42786133 69.08335449 112.54322266 68.67553711 113.69238281 C61.93618368 132.10707165 61.93618368 132.10707165 53.02734375 137.0625 C52.35832031 137.371875 51.68929687 137.68125 51 138 C50.26958496 138.34530762 49.53916992 138.69061523 48.78662109 139.04638672 C45.49926943 140.17135567 42.85803533 140.22701402 39.38671875 140.1953125 C38.13955078 140.18886719 36.89238281 140.18242187 35.60742188 140.17578125 C34.31384766 140.15902344 33.02027344 140.14226562 31.6875 140.125 C30.37458984 140.11597656 29.06167969 140.10695313 27.70898438 140.09765625 C24.47257813 140.07411875 21.23626581 140.03824871 18 140 C18 133.07 18 126.14 18 119 C28.25 118.75 28.25 118.75 31.46191406 118.70214844 C36.84521422 118.56043072 36.84521422 118.56043072 41.5625 116.21875 C42.95230404 114.07361768 43.9428966 112.1713102 44.75 109.75 C45.36875 107.89375 45.36875 107.89375 46 106 C43.69 105.67 41.38 105.34 39 105 C38.67016113 104.10023438 38.34032227 103.20046875 38.00048828 102.2734375 C27.49695432 73.63515896 16.80539188 45.06864972 6.06640625 16.51794434 C5.22088493 14.26995144 4.37600546 12.02171828 3.53125 9.7734375 C3.28604614 9.12218903 3.04084229 8.47094055 2.78820801 7.79995728 C1.81602013 5.2112112 0.87459375 2.62378126 0 0 Z " fill="#141515" transform="translate(417,255)"/>
<path d="M0 0 C8.58 0 17.16 0 26 0 C26.09079058 12.8751516 26.1639969 25.75008652 26.20724869 38.62548733 C26.22801956 44.60567162 26.25614308 50.58562334 26.30175781 56.56567383 C26.34559285 62.34937348 26.3692158 68.13285107 26.37950897 73.91670418 C26.38683332 76.11043856 26.4011335 78.30416241 26.42292023 80.49780083 C26.61977771 101.16263875 25.05792626 120.20255938 10.19140625 136 C0.19319212 145.12492983 -12.14903317 148.74762714 -25.4375 148.5625 C-26.53771484 148.55299316 -27.63792969 148.54348633 -28.77148438 148.53369141 C-36.8955947 148.32491674 -43.01556745 147.37105216 -50 143 C-50.79921875 142.55398438 -51.5984375 142.10796875 -52.421875 141.6484375 C-64.35079061 134.48308215 -71.2593703 123.03056951 -74.875 109.8125 C-76.01293824 104.76165132 -76.25808971 100.16179411 -76 95 C-73.33821779 93.6691089 -71.31260604 93.88731007 -68.3359375 93.90234375 C-66.65371094 93.90717773 -66.65371094 93.90717773 -64.9375 93.91210938 C-63.761875 93.92048828 -62.58625 93.92886719 -61.375 93.9375 C-60.19164062 93.94201172 -59.00828125 93.94652344 -57.7890625 93.95117188 C-54.85932493 93.96298533 -51.92968728 93.97945742 -49 94 C-48.77957031 95.55847656 -48.77957031 95.55847656 -48.5546875 97.1484375 C-46.98560783 107.2673011 -44.9990444 115.53276883 -37.0625 122.625 C-30.73578474 125.59064778 -21.96974011 125.11128952 -15.390625 123.26953125 C-9.89933358 120.74064705 -7.06334295 117.12668589 -4.375 111.75 C-1.58079514 104.12944128 -0.70070038 96.9746553 -0.68115234 88.89038086 C-0.67110672 87.92346313 -0.6610611 86.95654541 -0.65071106 85.96032715 C-0.62005949 82.79517153 -0.60289432 79.63009978 -0.5859375 76.46484375 C-0.56721134 74.25809517 -0.54763686 72.05135364 -0.5272522 69.84461975 C-0.47607804 64.05958222 -0.43637373 58.27452151 -0.39910889 52.48937988 C-0.35897673 46.57684668 -0.30792652 40.66440866 -0.2578125 34.75195312 C-0.1612275 23.1680292 -0.07777723 11.58406549 0 0 Z " fill="#151516" transform="translate(383,219)"/>
<path d="M0 0 C7.18268344 4.14922005 11.65165221 10.72930686 14.03491211 18.65356445 C15.0147185 23.33349011 14.77098468 28.17430855 14.8125 32.9375 C14.84150391 34.01966797 14.87050781 35.10183594 14.90039062 36.21679688 C14.97240088 45.4507268 13.08782178 54.86124781 7.2265625 62.3046875 C1.88158319 67.16595828 -4.91116747 70.19361084 -12.125 70.5625 C-18.79219826 70.12956505 -24.49819646 67.78642666 -29.31640625 63.11328125 C-38.64306023 51.58937044 -39.6130458 37.32347109 -38.2265625 23.0625 C-36.7007335 13.84994755 -32.62110067 7.30489029 -25.5625 1.28515625 C-18.03717748 -3.85999797 -8.12733094 -3.78950513 0 0 Z " fill="#FCFCFC" transform="translate(592.5,276.125)"/>
<path d="M0 0 C9.9 0 19.8 0 30 0 C30 9.24 30 18.48 30 28 C20.1 28 10.2 28 0 28 C0 18.76 0 9.52 0 0 Z " fill="#2A694F" transform="translate(646,336)"/>
</svg>
